<svg xmlns="http://www.w3.org/2000/svg" viewBox="0 0 40 50" fill="none">
  <path d="M12 25C12 17.268 18.268 11 26 11C33.732 11 40 17.268 40 25C40 32.732 33.732 39 26 39C18.268 39 12 32.732 12 25Z" fill="#22c55e" opacity="0.2"/>
  <path d="M18 25C18 20.582 21.582 17 26 17C30.418 17 34 20.582 34 25C34 29.418 30.418 33 26 33C21.582 33 18 29.418 18 25Z" fill="#22c55e" opacity="0.4"/>
  <path d="M24 25C24 23.895 24.895 23 26 23C27.105 23 28 23.895 28 25C28 26.105 27.105 27 26 27C24.895 27 24 26.105 24 25Z" fill="#22c55e"/>
</svg>
